<svg width="60" height="61" viewBox="0 0 60 61" fill="none" xmlns="http://www.w3.org/2000/svg">
<circle cx="30" cy="30.5371" r="30" fill="#FAE2CB"/>
<g clip-path="url(#clip0_1002_209)">
<path d="M41.16 37.4196C42.3391 37.3877 43.3434 37.748 44.184 38.5357C44.9475 39.2501 45.3648 40.1447 45.4929 41.1858C45.5353 41.5305 45.3843 41.7382 45.0832 41.8494C45.3376 44.0117 44.4343 45.5225 42.6614 45.9534C41.2542 46.2982 39.2515 45.6225 38.7018 43.3352C38.684 43.3352 38.6577 43.3292 38.6492 43.3352C38.1513 43.8945 37.7925 43.8308 37.5244 43.131C37.4591 42.9586 37.4091 42.7862 37.3684 42.6621C37.0503 42.6966 36.7466 42.7578 36.4421 42.7586C33.8165 42.7661 31.1909 42.7661 28.5653 42.7586C28.3108 42.7586 28.1887 42.7836 28.1412 43.1034C27.9036 44.6823 26.5083 45.8423 24.9178 45.8276C24.1489 45.8241 23.4063 45.5424 22.8233 45.0331C22.2402 44.5238 21.8548 43.8201 21.736 43.0482C21.7233 42.962 21.7038 42.881 21.6902 42.8104C21.4358 42.7604 21.1898 42.7397 20.9624 42.663C20.0048 42.3415 19.467 41.4047 19.5493 40.2568C19.6079 39.4729 19.8011 38.7055 20.1201 37.9893C20.4348 37.2748 20.7987 36.5836 21.1592 35.8899C21.1879 35.8385 21.2275 35.7943 21.275 35.7603C21.3225 35.7263 21.3768 35.7035 21.4341 35.6934C23.9322 35.6839 26.4311 35.6865 28.9292 35.6882C28.9499 35.6915 28.9699 35.6982 28.9885 35.708C28.8248 37.2533 29.0556 38.1211 29.7842 38.6124C29.813 38.172 29.8427 37.7506 29.869 37.3248C29.9708 35.5868 30.0726 33.8482 30.1744 32.109C30.2049 31.5919 30.0556 31.4109 29.5433 31.3549C28.7756 31.2687 28.008 31.1877 27.2412 31.0964C27.0296 31.0753 26.8248 31.009 26.6403 30.9017C26.4558 30.7944 26.2958 30.6487 26.1707 30.4741C26.0456 30.2994 25.9583 30.0999 25.9146 29.8885C25.8709 29.6771 25.8717 29.4588 25.917 29.2477C26.3892 26.9128 26.8679 24.5789 27.3531 22.2462C27.5677 21.2121 28.4262 20.5976 29.4254 20.7191C30.3262 20.8277 30.9997 21.649 31.0218 22.6375C31.0322 22.7911 31.0918 22.937 31.1914 23.0529C32.0762 24.0526 33.24 24.5818 34.4504 25.0351C35.024 25.2571 35.6352 25.3611 36.2487 25.3411C37.0732 25.3109 37.8994 25.3307 38.7256 25.335C39.7596 25.3411 40.3652 25.9538 40.3712 26.9967C40.3712 27.319 40.3788 27.6422 40.3661 27.9645C40.3543 28.3506 40.1975 28.7175 39.928 28.9899C39.6584 29.2623 39.2965 29.4197 38.9164 29.4296C38.5771 29.4408 38.2438 29.4296 37.8629 29.4296C38.1055 31.2524 38.4914 32.9364 40.0276 34.0973C41.0133 34.8427 41.3967 35.864 41.205 37.1025C41.188 37.1964 41.177 37.2912 41.16 37.4196ZM34.7821 27.8671C33.1433 27.6782 31.5886 27.0301 30.2915 25.9952C30.1668 26.5407 30.0463 27.038 29.9394 27.5379C29.8546 27.9516 29.9496 28.1282 30.3432 28.2799C31.0648 28.5569 31.7869 28.8318 32.5096 29.1047C33.4232 29.4494 33.7752 29.9717 33.6785 30.9499C33.469 33.0777 33.2366 35.203 33.0152 37.3274C32.9524 37.9307 32.893 38.534 32.832 39.1519H34.7829L34.7821 27.8671ZM41.9073 44.9779C43.5368 44.9848 44.6361 43.2809 43.9728 41.7831C43.9397 41.6871 43.8794 41.6033 43.7996 41.542C43.7198 41.4807 43.624 41.4446 43.5241 41.4383C42.2678 41.309 41.0837 41.5245 39.9835 42.1735C39.8843 42.2241 39.8019 42.3031 39.7466 42.4009C39.6913 42.4986 39.6654 42.6108 39.6722 42.7233C39.6819 43.3209 39.9209 43.8909 40.3382 44.3121C40.7556 44.7332 41.3183 44.9721 41.9065 44.9779H41.9073ZM22.7616 42.7828C22.7505 43.8868 23.849 44.8512 25.0459 44.7995C26.1622 44.7529 27.2038 43.748 27.1199 42.7828H22.7616Z" fill="#60340B"/>
<path d="M19.5878 22.2636C20.7307 22.2636 21.8735 22.2636 23.0164 22.2636C24.0343 22.2636 24.6645 22.904 24.6654 23.9304C24.6654 25.7472 24.6654 27.5639 24.6654 29.3806C24.6654 30.3907 24.0309 31.0371 23.041 31.0379C20.7338 31.0379 18.4265 31.0379 16.1193 31.0379C15.1481 31.0379 14.5076 30.3872 14.5025 29.4056C14.4992 27.5671 14.4992 25.7285 14.5025 23.8899C14.5025 22.9247 15.1481 22.2688 16.0956 22.2645C17.2593 22.2593 18.4231 22.2636 19.5878 22.2636Z" fill="#60340B"/>
<path d="M29.2184 34.6523H27.7458C25.5769 34.6523 23.4071 34.6523 21.2381 34.6575C21.145 34.6652 21.0516 34.6484 20.9668 34.6085C20.8821 34.5686 20.809 34.5071 20.7546 34.43C20.3573 33.9213 20.1271 33.2989 20.0964 32.6503C20.0752 32.2073 20.2601 32.0039 20.6901 32.0039C23.3355 32.0039 25.9812 32.0039 28.6272 32.0039C28.9894 32.0039 29.204 32.1651 29.2133 32.4943C29.232 33.1975 29.2184 33.9051 29.2184 34.6523Z" fill="#60340B"/>
<path d="M28.2246 17.6045C28.2298 16.9194 28.5024 16.2644 28.9825 15.7833C29.4627 15.3023 30.1111 15.0345 30.7855 15.0389C31.1197 15.0417 31.45 15.1114 31.7577 15.2439C32.0654 15.3764 32.3444 15.5693 32.5787 15.8114C32.813 16.0534 32.9981 16.3401 33.1234 16.6548C33.2487 16.9696 33.3118 17.3064 33.309 17.6459C33.3003 18.3258 33.0284 18.9748 32.5521 19.4524C32.0758 19.9301 31.4335 20.1978 30.7643 20.1978C30.4299 20.1971 30.0989 20.1295 29.7902 19.9987C29.4816 19.868 29.2013 19.6768 28.9655 19.4359C28.7296 19.1951 28.5428 18.9094 28.4156 18.5951C28.2885 18.2809 28.2236 17.9443 28.2246 17.6045Z" fill="#60340B"/>
</g>
<defs>
<clipPath id="clip0_1002_209">
<rect width="31" height="31" fill="white" transform="translate(14.5 15.0371)"/>
</clipPath>
</defs>
</svg>
