<svg width="27" height="15" viewBox="0 0 27 15" fill="none" xmlns="http://www.w3.org/2000/svg">
<g clip-path="url(#clip0_1002_270)">
<path d="M0 8.34134H2.05485L3.1967 2.66165H1.14158L0 8.34134ZM1.2548 1.98424H3.31826L3.65737 0.284902H1.59472L1.2548 1.98424ZM2.85409 9.93955H4.90921L6.16482 3.80324H7.70603L7.93327 2.66165H6.42164L6.47892 2.40483C6.56444 1.92077 6.73575 1.37727 7.50622 1.37727C7.96339 1.37727 8.39124 1.40578 8.8191 1.60559L9.04769 0.406994C8.57086 0.238748 8.06914 0.15184 7.5635 0.149902C5.908 0.149902 4.76668 1.12045 4.33829 2.66165H3.62483L3.39651 3.80324H4.10997L2.85409 9.93955Z" fill="#F59A1B"/>
<path d="M9.36171 8.45574C11.7877 8.45574 13.4717 6.25782 13.4717 4.45979C13.4717 3.1184 12.2443 2.54747 11.0457 2.54747C8.39062 2.54747 6.93574 4.91777 6.93574 6.54342C6.93574 7.88481 8.19162 8.45574 9.36171 8.45574ZM15.8697 8.45574C18.2956 8.45574 19.9796 6.25782 19.9796 4.45979C19.9796 3.1184 18.7238 2.54747 17.5249 2.54747C14.8706 2.54747 13.4152 4.91643 13.4152 6.54342C13.4152 7.88481 14.6996 8.45574 15.8697 8.45574ZM23.3189 8.34145H25.3452L27.0002 0.265381H24.9453L24.4599 2.66284L23.6037 2.57732C21.6058 2.57732 19.7793 5.14582 19.7793 6.97262C19.7793 7.71458 20.2634 8.45681 21.0922 8.45681C22.2623 8.45681 23.09 7.88589 23.4318 7.31496H23.5459L23.3189 8.34145ZM16.9822 12.5942C15.3872 13.9158 13.3385 14.5611 11.274 14.3922C8.56246 14.2209 6.62164 12.1373 6.2793 9.93966H6.39332C7.02126 11.3112 8.53396 12.5942 10.3893 12.7938C12.2717 13.0221 14.5277 12.1661 15.7548 10.9957L14.3849 9.93966H18.5234L17.6091 14.3352L17.0096 12.6227L16.9822 12.5942Z" fill="#F59A1B"/>
</g>
<defs>
<clipPath id="clip0_1002_270">
<rect width="27" height="14.2686" fill="white" transform="translate(0 0.149902)"/>
</clipPath>
</defs>
</svg>
