<svg width="265" height="37" viewBox="0 0 265 37" fill="none" xmlns="http://www.w3.org/2000/svg">
<path d="M49.2321 9.62639V13.446H40.4471V18.4408H47.1755V22.1134H40.4471V27.2111H49.2321V31.0306H35.4523V9.62639H49.2321ZM63.0099 21.2467C63.2058 21.6188 63.3918 22.0057 63.5681 22.4072C63.7542 22.8088 63.9305 23.2201 64.097 23.6413C64.2635 23.2103 64.4398 22.7941 64.6259 22.3925C64.8119 21.9812 65.0029 21.5846 65.1988 21.2026L70.6931 10.3903C70.791 10.2042 70.889 10.0622 70.9869 9.96427C71.0946 9.85654 71.2122 9.77819 71.3395 9.72922C71.4668 9.68025 71.6088 9.65087 71.7655 9.64108C71.932 9.63129 72.123 9.62639 72.3384 9.62639H76.1286V31.0306H71.7508V18.7199C71.7508 18.1225 71.7802 17.4761 71.839 16.7807L66.1684 27.784C65.9921 28.1268 65.7521 28.3863 65.4485 28.5626C65.1547 28.7389 64.8168 28.827 64.4349 28.827H63.7591C63.3772 28.827 63.0344 28.7389 62.7308 28.5626C62.437 28.3863 62.2019 28.1268 62.0256 27.784L56.3257 16.766C56.3648 17.1088 56.3942 17.4516 56.4138 17.7944C56.4334 18.1274 56.4432 18.4359 56.4432 18.7199V31.0306H52.0654V9.62639H55.8556C56.071 9.62639 56.2571 9.63129 56.4138 9.64108C56.5803 9.65087 56.7272 9.68025 56.8545 9.72922C56.9818 9.77819 57.0945 9.85654 57.1924 9.96427C57.3001 10.0622 57.403 10.2042 57.5009 10.3903L63.0099 21.2467ZM84.6331 23.8763V31.0306H79.6677V9.62639H87.2187C88.7269 9.62639 90.0197 9.80757 91.097 10.1699C92.1841 10.5225 93.0753 11.0122 93.7707 11.639C94.4758 12.2658 94.9949 13.0052 95.3279 13.8573C95.6609 14.7093 95.8274 15.63 95.8274 16.6191C95.8274 17.6866 95.656 18.666 95.3132 19.5573C94.9704 20.4485 94.4465 21.2124 93.7413 21.849C93.0362 22.4856 92.14 22.9851 91.0529 23.3474C89.9756 23.7 88.6975 23.8763 87.2187 23.8763H84.6331ZM84.6331 20.1302H87.2187C88.5114 20.1302 89.4419 19.8217 90.0099 19.2047C90.5779 18.5877 90.8619 17.7258 90.8619 16.6191C90.8619 16.1294 90.7885 15.6838 90.6416 15.2823C90.4947 14.8807 90.2694 14.538 89.9658 14.2539C89.672 13.9601 89.2949 13.7349 88.8346 13.5782C88.3841 13.4215 87.8455 13.3431 87.2187 13.3431H84.6331V20.1302ZM103.84 31.0306H98.8447V9.62639H103.84V31.0306ZM112.781 23.1124V31.0306H107.815V9.62639H114.779C116.326 9.62639 117.643 9.78799 118.73 10.1112C119.827 10.4246 120.718 10.8653 121.404 11.4333C122.099 12.0014 122.604 12.6722 122.917 13.446C123.231 14.2197 123.387 15.0619 123.387 15.9727C123.387 16.6681 123.294 17.3243 123.108 17.9413C122.922 18.5583 122.643 19.1312 122.271 19.6601C121.908 20.1792 121.458 20.6444 120.919 21.0557C120.39 21.467 119.778 21.8049 119.083 22.0694C119.416 22.2358 119.724 22.4415 120.008 22.6864C120.302 22.9312 120.557 23.2299 120.772 23.5825L125.326 31.0306H120.831C119.999 31.0306 119.401 30.7172 119.039 30.0904L115.484 23.8763C115.327 23.6021 115.141 23.4062 114.925 23.2887C114.72 23.1712 114.426 23.1124 114.044 23.1124H112.781ZM112.781 19.6895H114.779C115.454 19.6895 116.027 19.6062 116.497 19.4397C116.977 19.2634 117.369 19.0235 117.673 18.7199C117.976 18.4163 118.197 18.0637 118.334 17.6622C118.471 17.2508 118.539 16.8101 118.539 16.34C118.539 15.3998 118.231 14.6653 117.614 14.1364C117.007 13.6075 116.062 13.3431 114.779 13.3431H112.781V19.6895ZM141.135 9.62639V13.446H132.35V18.4408H139.078V22.1134H132.35V27.2111H141.135V31.0306H127.355V9.62639H141.135ZM150.442 31.0306V9.97896H157.156C158.449 9.97896 159.56 10.1063 160.491 10.3609C161.431 10.6156 162.2 10.9779 162.797 11.448C163.404 11.9181 163.85 12.496 164.134 13.1815C164.428 13.8573 164.575 14.6212 164.575 15.4733C164.575 15.9923 164.491 16.4918 164.325 16.9717C164.168 17.4516 163.923 17.8972 163.59 18.3086C163.267 18.7199 162.856 19.0872 162.356 19.4103C161.867 19.7335 161.289 19.998 160.623 20.2036C162.161 20.5072 163.321 21.0606 164.105 21.8637C164.888 22.6668 165.28 23.7245 165.28 25.0369C165.28 25.9281 165.113 26.741 164.78 27.4755C164.457 28.21 163.977 28.8417 163.341 29.3706C162.714 29.8995 161.94 30.3108 161.02 30.6046C160.109 30.8886 159.066 31.0306 157.89 31.0306H150.442ZM153.292 21.4377V28.7683H157.846C158.659 28.7683 159.355 28.6752 159.932 28.4892C160.52 28.3031 161 28.0435 161.372 27.7106C161.754 27.3678 162.033 26.9662 162.21 26.5059C162.386 26.0358 162.474 25.5217 162.474 24.9634C162.474 23.8763 162.087 23.0193 161.313 22.3925C160.549 21.756 159.389 21.4377 157.832 21.4377H153.292ZM153.292 19.4103H157.053C157.856 19.4103 158.552 19.3222 159.139 19.1459C159.727 18.9696 160.212 18.7248 160.594 18.4114C160.985 18.098 161.274 17.7209 161.46 17.2802C161.646 16.8297 161.739 16.34 161.739 15.8111C161.739 14.5771 161.367 13.6712 160.623 13.0934C159.879 12.5155 158.723 12.2266 157.156 12.2266H153.292V19.4103ZM177.648 28.7683C178.52 28.7683 179.298 28.6214 179.984 28.3276C180.67 28.0338 181.247 27.6224 181.718 27.0936C182.197 26.5647 182.56 25.933 182.805 25.1985C183.059 24.4639 183.187 23.6559 183.187 22.7745V9.97896H186.022V22.7745C186.022 23.9889 185.826 25.1152 185.434 26.1533C185.052 27.1915 184.499 28.0925 183.774 28.8564C183.059 29.6105 182.183 30.2031 181.145 30.634C180.106 31.0649 178.941 31.2804 177.648 31.2804C176.355 31.2804 175.19 31.0649 174.152 30.634C173.114 30.2031 172.232 29.6105 171.508 28.8564C170.783 28.0925 170.225 27.1915 169.833 26.1533C169.451 25.1152 169.26 23.9889 169.26 22.7745V9.97896H172.095V22.7598C172.095 23.6413 172.218 24.4492 172.462 25.1838C172.717 25.9183 173.079 26.55 173.55 27.0789C174.029 27.6077 174.612 28.024 175.298 28.3276C175.993 28.6214 176.777 28.7683 177.648 28.7683ZM194.057 22.2456V31.0306H191.221V9.97896H197.171C198.503 9.97896 199.654 10.1161 200.623 10.3903C201.593 10.6547 202.391 11.0416 203.018 11.5509C203.655 12.0601 204.125 12.6771 204.428 13.4019C204.732 14.1168 204.884 14.9199 204.884 15.8111C204.884 16.5555 204.766 17.2508 204.531 17.8972C204.296 18.5436 203.953 19.1263 203.503 19.6454C203.062 20.1547 202.519 20.5905 201.872 20.9529C201.236 21.3152 200.511 21.5895 199.698 21.7755C200.051 21.9812 200.364 22.2799 200.638 22.6717L206.779 31.0306H204.252C203.733 31.0306 203.351 30.8299 203.106 30.4283L197.641 22.9067C197.475 22.6717 197.294 22.5052 197.098 22.4072C196.902 22.2995 196.608 22.2456 196.216 22.2456H194.057ZM194.057 20.1743H197.039C197.871 20.1743 198.601 20.0763 199.228 19.8804C199.864 19.6748 200.393 19.3908 200.814 19.0284C201.245 18.6562 201.569 18.2155 201.784 17.7062C201.999 17.197 202.107 16.6338 202.107 16.0168C202.107 14.7632 201.691 13.8181 200.859 13.1815C200.036 12.5449 198.807 12.2266 197.171 12.2266H194.057V20.1743ZM218.535 28.9593C219.103 28.9593 219.622 28.9348 220.092 28.8858C220.572 28.827 221.022 28.7438 221.444 28.6361C221.865 28.5283 222.261 28.401 222.633 28.2541C223.006 28.0974 223.378 27.9211 223.75 27.7252V23.083H220.489C220.303 23.083 220.151 23.0291 220.033 22.9214C219.926 22.8137 219.872 22.6815 219.872 22.5248V20.9088H226.336V28.9886C225.807 29.3706 225.253 29.7036 224.675 29.9876C224.107 30.2716 223.495 30.5116 222.839 30.7074C222.193 30.8935 221.497 31.0306 220.753 31.1188C220.009 31.2167 219.201 31.2657 218.329 31.2657C216.801 31.2657 215.401 31.0062 214.128 30.4871C212.854 29.9582 211.758 29.2237 210.837 28.2835C209.916 27.3335 209.196 26.1974 208.677 24.8753C208.168 23.5531 207.913 22.0987 207.913 20.5121C207.913 18.906 208.163 17.4418 208.663 16.1196C209.172 14.7975 209.892 13.6663 210.822 12.7261C211.762 11.7761 212.894 11.0416 214.216 10.5225C215.548 10.0034 217.036 9.74391 218.682 9.74391C219.514 9.74391 220.288 9.80757 221.003 9.93489C221.718 10.0524 222.379 10.2287 222.986 10.4638C223.603 10.689 224.171 10.9681 224.69 11.3011C225.209 11.6243 225.694 11.9916 226.145 12.4029L225.337 13.6957C225.17 13.9601 224.955 14.0923 224.69 14.0923C224.533 14.0923 224.362 14.0385 224.176 13.9307C223.931 13.7936 223.657 13.6271 223.353 13.4313C223.05 13.2354 222.678 13.0493 222.237 12.873C221.806 12.6869 221.292 12.5302 220.694 12.4029C220.107 12.2756 219.406 12.2119 218.594 12.2119C217.409 12.2119 216.336 12.4078 215.376 12.7996C214.417 13.1815 213.599 13.7349 212.923 14.4596C212.247 15.1746 211.728 16.0462 211.366 17.0745C211.003 18.0931 210.822 19.239 210.822 20.5121C210.822 21.8441 211.008 23.034 211.38 24.082C211.762 25.1201 212.296 26.0015 212.982 26.7263C213.667 27.451 214.48 28.0044 215.42 28.3863C216.361 28.7683 217.399 28.9593 218.535 28.9593ZM243.696 9.97896V12.3001H233.589V19.2928H241.772V21.5258H233.589V28.7095H243.696V31.0306H230.724V9.97896H243.696ZM250.926 22.2456V31.0306H248.09V9.97896H254.04C255.372 9.97896 256.523 10.1161 257.492 10.3903C258.462 10.6547 259.26 11.0416 259.887 11.5509C260.523 12.0601 260.994 12.6771 261.297 13.4019C261.601 14.1168 261.753 14.9199 261.753 15.8111C261.753 16.5555 261.635 17.2508 261.4 17.8972C261.165 18.5436 260.822 19.1263 260.372 19.6454C259.931 20.1547 259.387 20.5905 258.741 20.9529C258.104 21.3152 257.38 21.5895 256.567 21.7755C256.919 21.9812 257.233 22.2799 257.507 22.6717L263.648 31.0306H261.121C260.602 31.0306 260.22 30.8299 259.975 30.4283L254.51 22.9067C254.344 22.6717 254.162 22.5052 253.967 22.4072C253.771 22.2995 253.477 22.2456 253.085 22.2456H250.926ZM250.926 20.1743H253.908C254.74 20.1743 255.47 20.0763 256.097 19.8804C256.733 19.6748 257.262 19.3908 257.683 19.0284C258.114 18.6562 258.437 18.2155 258.653 17.7062C258.868 17.197 258.976 16.6338 258.976 16.0168C258.976 14.7632 258.56 13.8181 257.727 13.1815C256.905 12.5449 255.676 12.2266 254.04 12.2266H250.926V20.1743Z" fill="#1D0605" fill-opacity="0.9"/>
<g clip-path="url(#clip0_1002_56)">
<path d="M26.0281 25.8123V28.0239C25.958 28.308 25.9103 28.5998 25.8156 28.8754C25.2236 30.5936 23.7286 31.6467 21.8896 31.6505C17.0983 31.6505 12.307 31.6505 7.51565 31.6505C7.4048 31.6505 7.29472 31.6505 7.18386 31.6421C5.36942 31.5504 3.76051 30.1725 3.4726 28.3819C3.35405 27.639 3.39562 26.87 3.38023 26.1125C3.36791 25.4967 3.68815 25.1887 4.30015 25.1887C7.99524 25.1887 11.6883 25.1887 15.3793 25.1887C15.6457 25.1853 15.9054 25.2731 16.1152 25.4374C16.8907 26.025 17.6684 26.609 18.4485 27.1895C18.547 27.2664 18.6471 27.335 18.7487 27.4089C19.6386 26.7384 20.5093 26.0848 21.3784 25.4281C21.5885 25.264 21.8486 25.177 22.1151 25.1818C23.0812 25.1887 24.0473 25.1987 25.0119 25.1818C25.5084 25.1679 25.851 25.3396 26.0281 25.8123Z" fill="#1D0605" fill-opacity="0.9"/>
<path d="M29.4923 5.37683C29.2614 6.25672 29.0304 7.13508 28.8072 8.01651C27.9773 11.3267 27.151 14.6369 26.3284 17.9471C26.2806 18.1411 26.2052 18.2034 26.0027 18.2034C18.4848 18.1978 10.9663 18.196 3.44728 18.198C3.38107 18.198 3.3141 18.1919 3.21634 18.1865C3.06237 17.5868 2.90841 16.9856 2.75984 16.3828C1.85916 12.7842 0.961047 9.18508 0.0654999 5.58545C0.00977727 5.40263 -0.00957539 5.21067 0.00853463 5.02041C0.113229 4.37376 0.859176 4.09663 1.39419 4.50694C2.24099 5.16513 3.07777 5.8441 3.91764 6.51538L7.51496 9.39447C8.02612 9.80324 8.10156 10.0527 7.89448 10.6662C7.75073 11.0735 7.76355 11.5197 7.93043 11.918C8.09731 12.3164 8.40635 12.6385 8.79746 12.8217C9.17927 13.001 9.61336 13.0351 10.0185 12.9175C10.4236 12.7999 10.772 12.5387 10.9984 12.1827C11.2288 11.8233 11.3183 11.3915 11.2499 10.9701C11.1814 10.5487 10.9597 10.1674 10.6273 9.89947C10.1215 9.47915 10.0515 9.15429 10.3432 8.56923C11.5236 6.20232 12.7055 3.83464 13.889 1.46619C14.0691 1.10284 14.3147 0.841104 14.7358 0.840334C15.1569 0.839564 15.4078 1.09745 15.5887 1.46157C16.7691 3.83105 17.9508 6.19847 19.1337 8.56384C19.427 9.15121 19.3562 9.48762 18.8574 9.89639C18.5237 10.1635 18.3009 10.5448 18.2319 10.9667C18.163 11.3885 18.2528 11.8209 18.484 12.1804C18.7091 12.5371 19.0566 12.7996 19.4613 12.9186C19.866 13.0376 20.3002 13.0051 20.6826 12.8271C21.0699 12.6477 21.3776 12.3321 21.547 11.9403C21.7164 11.5486 21.7356 11.1082 21.601 10.7031C21.3846 10.0334 21.447 9.82172 21.9859 9.386C23.9643 7.80173 25.9429 6.21849 27.9219 4.63627C28.5816 4.10895 29.1066 4.22442 29.4923 4.97499V5.37683Z" fill="#1D0605" fill-opacity="0.9"/>
<path d="M3.45605 19.9525H26.0277V20.2466C26.0277 20.9571 26.0277 21.6677 26.0277 22.3782C26.0277 23.0656 25.6882 23.4036 25 23.4036H4.52302C3.78015 23.4036 3.45991 23.0787 3.45914 22.3258C3.45914 21.6346 3.45914 20.9435 3.45914 20.2527L3.45605 19.9525Z" fill="#1D0605" fill-opacity="0.9"/>
</g>
<defs>
<clipPath id="clip0_1002_56">
<rect width="29.4922" height="30.8086" fill="white" transform="translate(0 0.843506)"/>
</clipPath>
</defs>
</svg>
